<?xml version="1.0" standalone="no"?>
<!DOCTYPE svg PUBLIC "-//W3C//DTD SVG 20010904//EN"
 "http://www.w3.org/TR/2001/REC-SVG-20010904/DTD/svg10.dtd">
<svg version="1.0" xmlns="http://www.w3.org/2000/svg"
 width="500.000000pt" height="500.000000pt" viewBox="0 0 500.000000 500.000000"
 preserveAspectRatio="xMidYMid meet">
<metadata>
Created by potrace 1.14, written by Peter Selinger 2001-2017
</metadata>
<g transform="translate(0.000000,500.000000) scale(0.100000,-0.100000)"
fill="#000000" stroke="none">
<path d="M2195 3912 c-33 -7 -63 -16 -67 -21 -5 -4 -10 -45 -13 -91 -7 -119
-15 -253 -21 -336 -4 -55 -2 -73 10 -83 8 -7 19 -10 23 -8 5 3 28 8 53 12 63
9 80 21 80 54 0 25 5 30 36 36 20 3 37 5 38 3 1 -2 9 -15 19 -29 l16 -27 67
14 c74 16 84 20 84 36 0 7 -49 112 -110 235 -122 249 -102 231 -215 205z m178
-217 c53 -108 97 -200 97 -204 0 -8 -47 -21 -75 -21 -6 0 -17 12 -24 26 -11
24 -15 26 -55 21 -75 -11 -96 -23 -96 -57 0 -16 -3 -30 -7 -30 -5 0 -25 -4
-46 -9 l-39 -9 6 76 c3 43 8 120 11 172 5 95 15 203 18 206 1 1 20 5 41 8 22
4 42 9 45 11 16 17 37 -16 124 -190z"/>
<path d="M2227 3744 c-13 -13 -8 -172 6 -177 15 -5 77 9 88 20 4 4 -7 42 -25
83 -31 69 -51 91 -69 74z m47 -119 c3 -8 1 -15 -4 -15 -6 0 -10 7 -10 15 0 8
2 15 4 15 2 0 6 -7 10 -15z"/>
<path d="M2841 3853 c-45 -22 -75 -71 -116 -189 -47 -133 -45 -186 8 -242 78
-84 207 -90 278 -14 36 38 85 158 76 185 -2 6 3 17 10 22 21 16 31 74 20 115
-29 110 -172 174 -276 123z m170 -45 c20 -11 44 -33 53 -50 17 -28 24 -93 12
-105 -8 -9 -87 28 -81 38 9 14 -14 57 -34 64 -52 16 -73 -10 -121 -149 -31
-89 -28 -113 14 -134 23 -12 31 -11 51 2 34 22 42 56 18 76 -16 13 -18 20 -9
42 l11 26 55 -19 c29 -10 57 -22 61 -26 4 -5 -4 -37 -19 -73 -45 -106 -111
-134 -208 -88 -26 12 -55 35 -65 52 -34 55 -26 99 46 273 40 96 123 123 216
71z m-56 -127 c1 -23 -3 -30 -13 -26 -7 3 -20 5 -28 5 -8 0 -11 6 -7 18 18 51
48 53 48 3z m-81 -147 c9 -3 16 -12 16 -20 0 -17 -12 -18 -28 -2 -22 22 -16
33 12 22z"/>
<path d="M3414 3494 c-38 -31 -71 -59 -74 -63 -3 -3 -30 -26 -60 -51 -113 -92
-170 -145 -170 -157 0 -5 16 -26 35 -48 19 -22 63 -74 97 -117 35 -42 70 -78
79 -81 10 -3 36 14 64 39 53 49 55 37 -22 130 -35 41 -41 54 -30 62 10 9 21 4
47 -23 19 -19 39 -35 46 -35 16 0 94 70 94 84 0 6 -14 28 -31 49 -26 31 -28
38 -14 43 11 5 27 -7 53 -37 50 -58 70 -79 80 -79 4 0 29 19 56 43 l49 43 -69
84 c-109 135 -141 170 -153 170 -5 0 -39 -25 -77 -56z m136 -61 c30 -36 67
-80 82 -97 15 -17 28 -33 28 -36 -1 -3 -12 -14 -27 -24 l-26 -19 -48 54 c-26
30 -48 57 -49 62 -1 27 -90 -26 -90 -54 0 -6 11 -25 25 -43 31 -40 31 -46 1
-68 -22 -16 -24 -16 -45 12 -35 49 -52 52 -89 20 -18 -15 -32 -34 -32 -42 0
-8 23 -41 50 -73 l50 -59 -24 -23 c-14 -13 -27 -23 -29 -23 -2 0 -26 28 -54
63 -28 34 -65 78 -82 97 -17 19 -31 38 -31 42 0 3 66 62 146 130 81 67 152
128 158 135 19 21 30 15 86 -54z"/>
<path d="M1272 3278 c-74 -130 -142 -270 -137 -279 7 -10 99 -59 113 -59 4 0
18 18 31 40 12 22 26 40 30 40 8 0 73 -33 218 -111 40 -22 81 -39 92 -39 12 0
28 19 48 58 27 52 33 92 14 92 -18 0 -291 153 -291 163 0 7 9 25 19 41 11 16
17 35 14 43 -5 14 -93 63 -112 63 -5 0 -23 -24 -39 -52z m97 -45 c-6 -15 -15
-33 -20 -40 -14 -16 -3 -49 19 -56 23 -8 265 -136 275 -146 7 -7 -13 -61 -28
-79 -3 -4 -249 124 -280 145 -33 22 -50 15 -73 -32 l-22 -45 -27 17 c-16 9
-30 18 -32 19 -2 2 109 221 136 266 2 5 17 1 33 -7 27 -14 28 -18 19 -42z"/>
<path d="M3790 2920 c-25 -5 -58 -11 -75 -14 -137 -24 -225 -39 -254 -43 -64
-8 -74 -19 -67 -74 4 -28 11 -61 17 -76 9 -24 12 -25 57 -18 26 3 58 9 72 12
16 3 0 -12 -44 -42 l-69 -47 7 -53 c3 -30 10 -66 16 -80 9 -24 13 -26 52 -20
24 3 50 8 58 10 8 2 31 7 50 10 19 3 46 7 60 10 14 3 41 7 60 10 138 23 206
37 212 43 11 12 12 35 4 82 -14 74 -18 79 -73 69 -88 -17 -93 -18 -93 -15 0 2
29 23 64 46 36 23 67 47 69 53 3 11 -5 71 -18 125 -6 24 -23 26 -105 12z m70
-37 c0 -5 4 -25 9 -46 l9 -38 -104 -70 c-118 -79 -134 -106 -56 -95 26 3 57 8
69 10 97 19 110 19 116 -6 15 -55 10 -65 -40 -72 -50 -7 -65 -9 -166 -27 -34
-6 -75 -13 -92 -16 -16 -2 -48 -8 -70 -13 -48 -11 -53 -6 -61 47 l-6 42 100
65 c110 71 118 79 99 94 -8 7 -44 4 -116 -9 -58 -10 -105 -18 -107 -16 -1 1
-5 21 -9 43 l-6 42 44 6 c24 4 57 9 73 13 77 15 281 51 297 52 9 1 17 -2 17
-6z"/>
<path d="M1338 2619 c-23 -12 -48 -37 -64 -64 -14 -25 -27 -45 -28 -45 -1 0
-3 21 -5 47 -3 56 -14 73 -44 67 -63 -11 -76 -17 -100 -42 -109 -113 -51 -312
92 -318 61 -3 103 16 137 62 15 22 31 42 34 47 3 4 6 -11 5 -34 -1 -52 14 -72
53 -71 111 3 176 133 132 266 -12 38 -70 95 -98 97 -9 0 -30 2 -47 4 -16 2
-47 -6 -67 -16z m129 -38 c27 -14 54 -72 58 -123 5 -77 -44 -148 -103 -148
-32 0 -25 67 11 103 29 29 30 56 2 86 -28 29 -58 5 -102 -81 -28 -55 -52 -89
-72 -101 -92 -54 -190 24 -179 142 6 60 38 108 81 119 18 5 33 8 35 7 1 -1 4
-19 5 -41 3 -31 0 -41 -17 -49 -11 -6 -25 -23 -30 -38 -14 -39 3 -62 44 -62
32 0 36 4 73 75 44 85 70 117 101 123 30 6 70 1 93 -12z m-47 -118 c0 -5 -4
-15 -10 -23 -11 -18 -25 -7 -17 15 6 15 27 21 27 8z m-190 -6 c0 -2 -9 -12
-20 -22 -19 -18 -20 -17 -20 3 0 15 6 22 20 22 11 0 20 -2 20 -3z"/>
<path d="M3464 2266 c-67 -29 -123 -138 -111 -215 8 -48 45 -100 87 -121 44
-22 47 -20 79 51 26 57 27 86 1 94 -22 7 -27 30 -7 38 6 2 55 -12 107 -32 102
-40 121 -62 61 -71 -31 -4 -36 -10 -52 -55 -32 -91 -25 -105 56 -110 42 -3 98
20 127 52 50 55 71 154 44 216 -21 51 -64 80 -185 125 -118 44 -157 50 -207
28z m201 -66 c138 -54 165 -80 165 -158 0 -81 -71 -162 -142 -162 -35 0 -39 9
-26 53 10 31 16 37 39 37 31 0 59 31 54 58 -2 9 -4 22 -4 28 -1 13 -50 37
-155 75 -73 27 -80 28 -102 14 -13 -8 -24 -19 -25 -23 0 -4 -2 -15 -4 -24 -2
-10 5 -28 15 -40 16 -21 16 -26 3 -61 -8 -20 -18 -37 -22 -37 -4 0 -20 13 -35
29 -48 50 -45 145 7 204 53 59 94 60 232 7z"/>
<path d="M1521 2088 c-78 -21 -112 -66 -114 -154 -1 -30 -3 -54 -4 -54 -1 0
-14 20 -29 45 -30 52 -48 56 -88 19 -56 -53 -69 -122 -37 -196 35 -80 118
-135 186 -122 73 13 120 66 131 147 8 54 9 55 28 20 27 -53 42 -59 80 -32 69
47 84 129 40 217 -43 86 -119 129 -193 110z m71 -37 c18 -2 82 -69 94 -98 21
-48 17 -106 -7 -137 -26 -33 -33 -33 -57 6 -15 23 -18 37 -11 49 23 44 -3 99
-47 99 -35 0 -43 -27 -38 -126 6 -98 -2 -123 -49 -158 -113 -84 -271 104 -179
213 l28 34 23 -38 c15 -27 19 -41 12 -48 -15 -15 -14 -60 2 -79 21 -26 46 -29
67 -8 17 17 19 32 17 124 -2 98 -1 106 22 130 25 26 73 45 101 40 8 -1 18 -3
22 -3z m-9 -135 c6 -15 -1 -26 -15 -26 -4 0 -8 9 -8 20 0 23 15 27 23 6z
m-176 -123 c-3 -3 -11 -2 -17 2 -8 5 -7 11 2 22 12 15 13 14 16 -1 2 -10 1
-20 -1 -23z"/>
<path d="M3070 1749 c-30 -24 -49 -46 -46 -54 2 -7 26 -41 52 -75 43 -54 54
-79 95 -218 33 -113 51 -158 62 -160 16 -3 127 76 127 90 0 4 -9 31 -19 59
l-20 50 25 -15 c13 -9 35 -23 49 -32 24 -16 27 -15 63 10 55 37 82 65 82 81 0
12 -27 30 -151 100 -117 66 -138 82 -184 141 -27 35 -57 64 -66 64 -10 0 -40
-18 -69 -41z m113 -57 c38 -49 67 -71 171 -131 69 -40 128 -76 130 -80 3 -4
-10 -19 -28 -33 l-34 -27 -66 46 c-93 64 -104 56 -67 -47 l30 -80 -35 -26
c-19 -15 -36 -25 -39 -23 -2 2 -13 36 -24 74 -65 227 -57 209 -115 279 l-40
49 32 28 c18 16 34 29 36 29 2 0 24 -26 49 -58z"/>
<path d="M2074 1642 c-8 -5 -33 -46 -78 -129 -1 -1 -26 7 -56 17 -86 30 -143
14 -194 -52 -48 -64 -50 -147 -4 -208 22 -30 196 -130 227 -130 15 0 35 30 86
128 37 70 88 165 113 211 51 96 51 101 -24 142 -56 31 -55 31 -70 21z m56 -57
c17 -9 30 -21 30 -28 -1 -6 -32 -70 -71 -142 -38 -71 -82 -154 -96 -182 -15
-29 -30 -53 -33 -53 -18 0 -177 100 -193 121 -42 58 -9 167 60 195 38 17 79
11 134 -17 22 -11 44 -17 49 -14 5 3 23 35 42 70 18 36 36 65 41 65 4 0 21 -7
37 -15z"/>
<path d="M1866 1417 c-40 -36 -42 -63 -7 -98 17 -17 39 -29 48 -27 10 2 29 23
42 47 28 50 22 68 -27 88 -28 11 -34 11 -56 -10z m54 -41 c0 -21 -18 -39 -33
-33 -16 6 -17 23 -4 44 9 14 37 6 37 -11z"/>
</g>
</svg>
